<svg xmlns="http://www.w3.org/2000/svg" width="27" height="34" viewBox="0 0 27 34">
  <path id="Location" class="cls-1" d="M232.493,4527.01a13.634,13.634,0,0,0-13.253,16.18c0.007,0.05.035,0.2,0.092,0.46a13.662,13.662,0,0,0,.9,2.69c1.453,3.45,4.65,8.76,11.665,14.45a0.962,0.962,0,0,0,1.2,0c7.007-5.69,10.211-11,11.665-14.45a13.509,13.509,0,0,0,.9-2.69c0.056-.26.085-0.41,0.092-0.46a14.139,14.139,0,0,0,.24-2.56A13.6,13.6,0,0,0,232.493,4527.01Zm11.375,15.85c0,0.01-.006.03-0.006,0.04-0.007.04-.029,0.14-0.064,0.31v0.01a11.121,11.121,0,0,1-.783,2.32,0.144,0.144,0,0,1-.014.03c-1.32,3.16-4.213,7.98-10.508,13.23-6.295-5.25-9.188-10.07-10.508-13.23a0.084,0.084,0,0,1-.014-0.03,12,12,0,0,1-.783-2.32v-0.01c-0.043-.17-0.057-0.27-0.064-0.31,0-.01-0.007-0.03-0.007-0.05A11.587,11.587,0,1,1,243.868,4542.86Zm-11.375-10.73a8.655,8.655,0,1,0,8.567,8.65A8.627,8.627,0,0,0,232.493,4532.13Zm0,15.38a6.725,6.725,0,1,1,6.662-6.73A6.7,6.7,0,0,1,232.493,4547.51Z" transform="translate(-219 -4527)"/>
</svg>
