<svg aria-hidden="true" style="position: absolute; width: 0; height: 0; overflow: hidden;" version="1.1" xmlns="http://www.w3.org/2000/svg" xmlns:xlink="http://www.w3.org/1999/xlink">
<defs>
<symbol id="icon-calendar" viewBox="0 0 32 32">
<title>calendar</title>
<path d="M30.179 5.25c-0.452-0.452-0.988-0.679-1.607-0.679h-2.285v-1.714c0-0.786-0.28-1.458-0.839-2.018s-1.232-0.839-2.018-0.839h-1.143c-0.786 0-1.458 0.28-2.018 0.839s-0.839 1.232-0.839 2.018v1.714h-6.857v-1.714c0-0.786-0.28-1.458-0.839-2.018s-1.232-0.839-2.018-0.839h-1.143c-0.786 0-1.458 0.28-2.018 0.839s-0.839 1.232-0.839 2.018v1.714h-2.285c-0.619 0-1.155 0.226-1.607 0.679s-0.679 0.988-0.679 1.607v22.857c0 0.619 0.226 1.154 0.679 1.607s0.988 0.679 1.607 0.679h25.142c0.619 0 1.155-0.226 1.607-0.679s0.679-0.988 0.679-1.607v-22.857c-0-0.619-0.226-1.155-0.678-1.607zM8.572 29.714h-5.143v-5.143h5.143v5.143zM8.572 23.429h-5.143v-5.714h5.143v5.714zM8.572 16.571h-5.143v-5.143h5.143v5.143zM8.17 8.402c-0.113-0.113-0.17-0.247-0.17-0.402v-5.143c0-0.155 0.056-0.289 0.17-0.402s0.247-0.17 0.402-0.17h1.143c0.155 0 0.289 0.056 0.402 0.17s0.17 0.247 0.17 0.402v5.143c0 0.155-0.057 0.289-0.17 0.402s-0.247 0.17-0.402 0.17h-1.143c-0.155 0-0.289-0.056-0.402-0.17zM15.429 29.714h-5.714v-5.143h5.714v5.143zM15.429 23.429h-5.714v-5.714h5.714v5.714zM15.429 16.571h-5.714v-5.143h5.714v5.143zM22.286 29.714h-5.714v-5.143h5.714v5.143zM22.286 23.429h-5.714v-5.714h5.714v5.714zM22.286 16.571h-5.714v-5.143h5.714v5.143zM21.884 8.402c-0.113-0.113-0.169-0.247-0.169-0.402v-5.143c0-0.155 0.056-0.289 0.169-0.402s0.247-0.17 0.402-0.17h1.143c0.155 0 0.289 0.056 0.402 0.17s0.169 0.247 0.169 0.402v5.143c0 0.155-0.056 0.289-0.169 0.402s-0.247 0.17-0.402 0.17h-1.143c-0.155 0-0.289-0.056-0.402-0.17zM28.571 29.714h-5.143v-5.143h5.143v5.143zM28.571 23.429h-5.143v-5.714h5.143v5.714zM28.571 16.571h-5.143v-5.143h5.143v5.143z"></path>
</symbol>
<symbol id="icon-facebook" viewBox="0 0 32 32">
<title>facebook</title>
<path d="M23.999 0.007l-4.15-0.007c-4.662 0-7.675 3.091-7.675 7.875v3.631h-4.172c-0.361 0-0.652 0.292-0.652 0.653v5.261c0 0.361 0.292 0.652 0.652 0.652h4.172v13.275c0 0.361 0.292 0.653 0.652 0.653h5.444c0.361 0 0.652-0.292 0.652-0.652v-13.275h4.878c0.361 0 0.652-0.292 0.652-0.652l0.002-5.261c0-0.173-0.069-0.339-0.191-0.461s-0.289-0.191-0.462-0.191h-4.88v-3.078c0-1.479 0.353-2.23 2.28-2.23l2.795-0.001c0.36 0 0.652-0.292 0.652-0.652v-4.885c0-0.36-0.292-0.652-0.651-0.652z"></path>
</symbol>
<symbol id="icon-location" viewBox="0 0 32 32">
<title>location</title>
<path d="M15.993 0.009c-7.030 0.075-12.699 5.791-12.699 12.831 0 0.848 0.082 1.676 0.239 2.478l-0.013-0.081c0.007 0.047 0.033 0.188 0.087 0.433 0.218 0.966 0.509 1.811 0.88 2.611l-0.033-0.079c1.368 3.247 4.376 8.245 10.979 13.6 0.153 0.123 0.35 0.198 0.565 0.198s0.411-0.075 0.566-0.199l-0.002 0.001c6.595-5.355 9.61-10.353 10.979-13.6 0.339-0.722 0.631-1.567 0.831-2.447l0.016-0.085c0.053-0.245 0.080-0.386 0.087-0.433 0.142-0.723 0.224-1.556 0.226-2.408v-0.002c0-0.006 0-0.012 0-0.019 0-7.037-5.678-12.747-12.702-12.8l-0.005-0zM26.699 14.927c0 0.009-0.006 0.028-0.006 0.038-0.007 0.038-0.027 0.132-0.060 0.292v0.009c-0.184 0.83-0.438 1.559-0.764 2.247l0.027-0.063c-0.004 0.011-0.008 0.020-0.014 0.029l0-0.001c-1.242 2.974-3.965 7.511-9.89 12.452-5.925-4.941-8.648-9.478-9.89-12.452-0.006-0.008-0.011-0.017-0.013-0.028l-0-0.001c-0.292-0.621-0.545-1.349-0.722-2.107l-0.015-0.076v-0.009c-0.040-0.16-0.054-0.254-0.060-0.292 0-0.009-0.007-0.028-0.007-0.047-0.126-0.622-0.198-1.337-0.198-2.069 0-6.023 4.883-10.905 10.905-10.905s10.905 4.883 10.905 10.905c0 0.735-0.073 1.454-0.212 2.148l0.012-0.070zM15.993 4.828c-0.025-0-0.054-0-0.083-0-4.499 0-8.146 3.647-8.146 8.146s3.647 8.146 8.146 8.146c4.499 0 8.146-3.647 8.146-8.146 0-0.002 0-0.003 0-0.005v0c0-0.007 0-0.014 0-0.022 0-4.464-3.603-8.087-8.060-8.119l-0.003-0zM15.993 19.304c-0.018 0-0.038 0-0.059 0-3.496 0-6.329-2.834-6.329-6.329s2.834-6.329 6.329-6.329c3.494 0 6.327 2.831 6.329 6.324v0c0 0.008 0 0.018 0 0.028 0 3.47-2.803 6.286-6.268 6.306h-0.002z"></path>
</symbol>
<symbol id="icon-mail" viewBox="0 0 32 32">
<title>mail</title>
<path d="M27.87 4.114h-23.976c-0.004-0-0.009-0-0.014-0-2.126 0-3.852 1.716-3.867 3.839v16.212c0.012 2.123 1.737 3.84 3.862 3.84 0.007 0 0.014-0 0.020-0h23.969c0.005 0 0.012 0 0.018 0 2.125 0 3.849-1.717 3.862-3.839v-16.202c-0.006-2.127-1.731-3.849-3.859-3.849-0.005 0-0.010 0-0.015 0h0.001zM29.973 24.165c-0.007 1.153-0.943 2.085-2.096 2.085-0.002 0-0.005 0-0.007 0h-23.976c-0.003 0-0.007 0-0.011 0-1.154 0-2.090-0.932-2.097-2.084v-16.202c0.007-1.153 0.943-2.085 2.097-2.085 0.004 0 0.008 0 0.012 0h23.969c0.003-0 0.007-0 0.011-0 1.154 0 2.090 0.932 2.096 2.084v16.202h0.006zM20.020 15.863l7.76-6.885c0.18-0.161 0.293-0.395 0.293-0.654 0-0.227-0.086-0.434-0.228-0.59l0.001 0.001c-0.164-0.179-0.399-0.29-0.66-0.29-0.229 0-0.438 0.086-0.596 0.227l0.001-0.001-10.697 9.499-2.088-1.847c-0.008-0.002-0.014-0.009-0.014-0.018 0-0 0-0 0-0.001v0c-0.043-0.043-0.090-0.082-0.141-0.117l-0.003-0.002-8.496-7.525c-0.157-0.138-0.363-0.222-0.59-0.222-0.263 0-0.5 0.114-0.663 0.294l-0.001 0.001c-0.14 0.154-0.226 0.36-0.226 0.586 0 0.262 0.115 0.496 0.298 0.656l0.001 0.001 7.852 6.939-7.82 7.241c-0.171 0.16-0.278 0.388-0.278 0.641 0 0.234 0.091 0.446 0.24 0.603l-0-0c0.165 0.169 0.396 0.274 0.651 0.274 0.232 0 0.443-0.087 0.604-0.229l-0.001 0.001 7.938-7.351 2.153 1.902c0.154 0.142 0.361 0.229 0.588 0.229 0.001 0 0.002 0 0.003 0h-0c0.227-0.003 0.434-0.089 0.592-0.229l-0.001 0.001 2.213-1.966 7.891 7.415c0.159 0.155 0.376 0.25 0.615 0.25 0.487 0 0.881-0.395 0.881-0.881 0-0.252-0.106-0.479-0.275-0.639l-0-0z"></path>
</symbol>
<symbol id="icon-phone" viewBox="0 0 32 32">
<title>phone</title>
<path d="M24.984 19.787c-0.562-0.616-1.363-1.006-2.256-1.022l-0.003-0c-0.901 0.019-1.709 0.404-2.283 1.012l-0.001 0.002-2.112 2.080c-0.173-0.098-0.348-0.178-0.515-0.267-0.24-0.116-0.468-0.231-0.661-0.347-2.127-1.381-3.942-3.021-5.464-4.907l-0.034-0.044c-0.686-0.815-1.288-1.738-1.77-2.73l-0.035-0.079c0.548-0.498 1.055-1.004 1.55-1.502l0.561-0.56c0.646-0.555 1.053-1.372 1.053-2.284s-0.407-1.73-1.049-2.281l-0.004-0.003-1.824-1.796c-0.207-0.204-0.421-0.418-0.622-0.631-0.401-0.409-0.822-0.827-1.256-1.227-0.569-0.586-1.359-0.954-2.235-0.969l-0.003-0c-0.889 0.018-1.69 0.385-2.273 0.969l-0 0-0.013 0.018-2.271 2.258c-0.813 0.787-1.349 1.856-1.449 3.049l-0.001 0.017c-0.008 0.159-0.012 0.345-0.012 0.532 0 1.575 0.319 3.076 0.896 4.441l-0.028-0.075c1.28 3.24 3.006 6.028 5.138 8.449l-0.027-0.031c2.848 3.361 6.335 6.086 10.285 8.007l0.186 0.082c1.707 0.891 3.701 1.501 5.812 1.71l0.068 0.005c0.14 0.009 0.287 0.018 0.42 0.018 0.036 0.001 0.078 0.001 0.121 0.001 1.475 0 2.804-0.629 3.732-1.634l0.003-0.003c0.006-0.018 0.020-0.018 0.027-0.036 0.373-0.426 0.755-0.814 1.157-1.181l0.012-0.010c0.288-0.276 0.581-0.56 0.869-0.853 0.604-0.579 0.986-1.385 1.009-2.28l0-0.004c-0.020-0.896-0.412-1.696-1.027-2.256l-0.003-0.002zM27.376 26.729c-0.006 0-0.006 0.009 0 0-0.26 0.276-0.528 0.533-0.815 0.809-0.454 0.418-0.875 0.847-1.273 1.297l-0.016 0.019c-0.596 0.647-1.447 1.051-2.392 1.051-0.043 0-0.085-0.001-0.127-0.002l0.006 0c-0.1 0-0.207 0-0.308-0.009-1.933-0.201-3.699-0.747-5.293-1.576l0.081 0.039c-3.896-1.892-7.181-4.46-9.831-7.584l-0.035-0.043c-1.981-2.246-3.605-4.867-4.747-7.731l-0.063-0.18c-0.48-1.085-0.759-2.351-0.759-3.682 0-0.156 0.004-0.31 0.011-0.464l-0.001 0.022c0.058-0.776 0.4-1.462 0.922-1.963l0.001-0.001 2.278-2.249c0.259-0.27 0.615-0.446 1.012-0.471l0.004-0c0.388 0.025 0.73 0.198 0.977 0.461l0.001 0.001 0.020 0.027c0.407 0.373 0.795 0.764 1.203 1.173 0.207 0.213 0.42 0.427 0.635 0.64l1.824 1.804c0.323 0.229 0.531 0.601 0.531 1.022s-0.208 0.793-0.528 1.020l-0.004 0.003c-0.194 0.196-0.38 0.382-0.574 0.569-0.562 0.569-1.097 1.093-1.677 1.609-0.015 0.008-0.027 0.020-0.034 0.035l-0 0c-0.273 0.245-0.445 0.6-0.445 0.994 0 0.18 0.036 0.352 0.1 0.508l-0.003-0.009c0.007 0.018 0.013 0.044 0.020 0.062 0.591 1.329 1.314 2.474 2.176 3.497l-0.018-0.022 0.006 0.009c1.675 2.082 3.635 3.847 5.838 5.266l0.096 0.058c0.226 0.143 0.495 0.291 0.773 0.424l0.049 0.021c0.241 0.116 0.468 0.231 0.661 0.347l0.081 0.053c0.193 0.098 0.42 0.157 0.66 0.16h0.001c0.4-0.012 0.759-0.183 1.015-0.453l0.001-0.001 2.285-2.258c0.254-0.279 0.607-0.464 1.003-0.497l0.006-0c0.389 0.023 0.73 0.207 0.961 0.487l0.002 0.002c0.006 0 0.006 0 0.013 0.009l3.682 3.636c0.316 0.238 0.518 0.613 0.518 1.034 0 0.418-0.198 0.789-0.506 1.026l-0.003 0.002zM17.073 7.858c1.815 0.31 3.394 1.155 4.611 2.365l-0-0c1.219 1.192 2.073 2.752 2.385 4.501l0.007 0.050c0.075 0.422 0.438 0.738 0.876 0.738 0.005 0 0.009-0 0.014-0h-0.001c0.055-0.002 0.108-0.008 0.16-0.019l-0.006 0.001c0.429-0.065 0.754-0.431 0.754-0.873 0-0.053-0.005-0.105-0.014-0.155l0.001 0.005c-0.385-2.178-1.419-4.067-2.892-5.509l-0.002-0.002c-1.473-1.459-3.384-2.479-5.518-2.845l-0.061-0.009c-0.047-0.009-0.101-0.013-0.156-0.013-0.439 0-0.805 0.313-0.886 0.728l-0.001 0.006c-0.009 0.048-0.015 0.104-0.015 0.16 0 0.438 0.32 0.802 0.738 0.87l0.005 0.001zM31.586 14.213c-0.635-3.586-2.337-6.696-4.761-9.073l-0.003-0.003c-2.427-2.403-5.573-4.083-9.087-4.688l-0.101-0.014c-0.044-0.008-0.095-0.012-0.147-0.012-0.493 0-0.892 0.399-0.892 0.892 0 0.441 0.32 0.807 0.74 0.879l0.005 0.001c3.231 0.549 6.044 2.049 8.213 4.197l-0.001-0.001c2.168 2.125 3.689 4.904 4.244 8.017l0.013 0.090c0.093 0.425 0.465 0.738 0.911 0.738 0.046 0 0.091-0.003 0.136-0.010l-0.005 0.001c0.425-0.063 0.748-0.426 0.748-0.864 0-0.053-0.005-0.104-0.014-0.155l0.001 0.005z"></path>
</symbol>
<symbol id="icon-pinterest" viewBox="0 0 32 32">
<title>pinterest</title>
<path d="M16.435 0c-8.77 0-13.435 5.62-13.435 11.749 0 2.842 1.588 6.386 4.13 7.51 0.386 0.174 0.596 0.1 0.682-0.258 0.076-0.272 0.41-1.582 0.572-2.2 0.050-0.198 0.024-0.37-0.136-0.556-0.844-0.976-1.514-2.754-1.514-4.422 0-4.274 3.398-8.424 9.18-8.424 5 0 8.498 3.248 8.498 7.894 0 5.25-2.778 8.882-6.388 8.882-1.998 0-3.486-1.568-3.014-3.508 0.57-2.31 1.688-4.794 1.688-6.46 0-1.494-0.844-2.73-2.568-2.73-2.034 0-3.684 2.014-3.684 4.718 0 1.718 0.608 2.878 0.608 2.878s-2.012 8.128-2.386 9.646c-0.632 2.57 0.086 6.732 0.148 7.090 0.038 0.198 0.26 0.26 0.384 0.098 0.198-0.26 2.63-3.73 3.312-6.238 0.248-0.914 1.266-4.62 1.266-4.62 0.67 1.21 2.604 2.224 4.664 2.224 6.128 0 10.556-5.386 10.556-12.071-0.022-6.408-5.506-11.203-12.565-11.203z"></path>
</symbol>
<symbol id="icon-rss" viewBox="0 0 32 32">
<title>rss</title>
<path d="M4.363 23.272c-1.212 0-2.242 0.424-3.091 1.273s-1.272 1.878-1.272 3.090c0 1.212 0.424 2.242 1.272 3.090s1.879 1.273 3.091 1.273c1.212 0 2.242-0.424 3.090-1.273s1.272-1.878 1.272-3.090c0-1.212-0.424-2.242-1.272-3.090s-1.878-1.273-3.090-1.273z"></path>
<path d="M14.407 17.59c-1.712-1.727-3.674-3.102-5.886-4.124s-4.53-1.633-6.954-1.829h-0.113c-0.394 0-0.72 0.129-0.977 0.386-0.318 0.272-0.477 0.629-0.477 1.068v3.068c0 0.379 0.125 0.704 0.375 0.977s0.564 0.424 0.943 0.454c3.469 0.333 6.435 1.731 8.896 4.193s3.86 5.427 4.193 8.896c0.030 0.379 0.182 0.693 0.455 0.943 0.273 0.251 0.598 0.376 0.977 0.376h3.068c0.439 0 0.795-0.159 1.068-0.477 0.288-0.303 0.417-0.667 0.387-1.091-0.197-2.423-0.807-4.742-1.83-6.953s-2.397-4.174-4.125-5.886z"></path>
<path d="M29.269 19.079c-1.621-3.628-3.848-6.851-6.681-9.669-2.818-2.833-6.041-5.060-9.669-6.681s-7.427-2.53-11.396-2.727h-0.068c-0.394 0-0.727 0.136-1 0.409-0.303 0.272-0.454 0.621-0.454 1.045v3.249c0 0.379 0.133 0.708 0.398 0.988s0.587 0.428 0.966 0.443c3.257 0.197 6.352 0.97 9.283 2.318s5.477 3.102 7.635 5.26c2.158 2.159 3.912 4.704 5.26 7.636s2.114 6.026 2.295 9.283c0.016 0.379 0.163 0.701 0.443 0.966s0.618 0.398 1.012 0.398h3.249c0.424 0 0.772-0.151 1.045-0.455 0.303-0.303 0.439-0.659 0.409-1.068-0.197-3.97-1.106-7.768-2.727-11.397z"></path>
</symbol>
<symbol id="icon-sun" viewBox="0 0 32 32">
<title>sun</title>
<path d="M31.151 20.422l-3.216-4.431 3.216-4.431c0.107-0.155 0.131-0.327 0.071-0.518-0.048-0.179-0.167-0.298-0.357-0.357l-5.217-1.715v-5.468c0-0.191-0.078-0.345-0.233-0.464-0.178-0.119-0.351-0.143-0.518-0.072l-5.217 1.679-3.216-4.431c-0.107-0.143-0.262-0.214-0.465-0.214s-0.357 0.072-0.464 0.214l-3.216 4.431-5.217-1.679c-0.167-0.071-0.339-0.048-0.518 0.072-0.155 0.119-0.232 0.274-0.232 0.464v5.467l-5.217 1.715c-0.191 0.060-0.31 0.179-0.357 0.357-0.059 0.191-0.036 0.363 0.072 0.518l3.216 4.431-3.216 4.431c-0.107 0.143-0.131 0.315-0.072 0.518 0.048 0.178 0.167 0.297 0.357 0.357l5.217 1.715v5.467c0 0.19 0.077 0.346 0.232 0.465 0.179 0.119 0.352 0.143 0.518 0.072l5.217-1.679 3.216 4.431c0.119 0.155 0.274 0.232 0.464 0.232s0.346-0.078 0.465-0.232l3.216-4.431 5.217 1.679c0.166 0.072 0.339 0.048 0.518-0.072 0.155-0.119 0.233-0.274 0.233-0.465v-5.467l5.217-1.715c0.19-0.060 0.309-0.179 0.357-0.357 0.060-0.203 0.036-0.375-0.071-0.518zM25.479 19.984c-0.542 1.268-1.274 2.364-2.197 3.288s-2.019 1.656-3.288 2.198c-1.268 0.542-2.6 0.813-3.993 0.813s-2.725-0.271-3.993-0.813c-1.268-0.542-2.364-1.275-3.287-2.198s-1.656-2.019-2.198-3.288c-0.542-1.269-0.813-2.6-0.813-3.993s0.271-2.725 0.813-3.993c0.542-1.268 1.275-2.364 2.198-3.288s2.019-1.656 3.287-2.198c1.268-0.542 2.6-0.813 3.993-0.813s2.725 0.271 3.993 0.813c1.269 0.542 2.364 1.275 3.288 2.198s1.655 2.019 2.197 3.288c0.542 1.269 0.813 2.6 0.813 3.993s-0.271 2.725-0.813 3.993z"></path>
</symbol>
<symbol id="icon-twitter" viewBox="0 0 32 32">
<title>twitter</title>
<path d="M32 6.079c-1.178 0.522-2.442 0.876-3.769 1.034 1.356-0.812 2.394-2.1 2.885-3.629-1.272 0.752-2.675 1.298-4.171 1.594-1.198-1.278-2.901-2.074-4.791-2.074-3.625 0-6.565 2.939-6.565 6.563 0 0.514 0.058 1.016 0.17 1.496-5.455-0.274-10.292-2.887-13.529-6.859-0.566 0.968-0.888 2.096-0.888 3.299 0 2.278 1.16 4.287 2.919 5.463-1.076-0.036-2.088-0.332-2.973-0.824v0.082c0 3.179 2.264 5.833 5.265 6.437-0.55 0.148-1.13 0.23-1.73 0.23-0.424 0-0.834-0.042-1.236-0.122 0.836 2.61 3.259 4.507 6.131 4.559-2.246 1.76-5.077 2.805-8.152 2.805-0.53 0-1.052-0.032-1.566-0.090 2.905 1.866 6.355 2.953 10.062 2.953 12.076 0 18.677-10.002 18.677-18.677l-0.022-0.85c1.29-0.92 2.405-2.076 3.283-3.391z"></path>
</symbol>
<symbol id="icon-whatsapp" viewBox="0 0 32 32">
<title>whatsapp</title>
<path d="M32 15.588c0 8.609-7.033 15.588-15.709 15.588-2.755 0-5.342-0.704-7.594-1.94l-8.697 2.764 2.836-8.363c-1.43-2.349-2.254-5.104-2.254-8.049 0-8.609 7.033-15.588 15.71-15.588 8.677 0 15.709 6.979 15.709 15.588zM16.291 2.482c-7.283 0-13.207 5.879-13.207 13.105 0 2.868 0.935 5.523 2.516 7.684l-1.65 4.867 5.076-1.613c2.085 1.369 4.583 2.168 7.267 2.168 7.282 0 13.207-5.878 13.207-13.105s-5.925-13.106-13.208-13.106zM24.224 19.178c-0.097-0.159-0.353-0.255-0.738-0.446s-2.279-1.116-2.631-1.243c-0.353-0.127-0.61-0.191-0.867 0.191s-0.994 1.243-1.22 1.498c-0.225 0.256-0.449 0.288-0.834 0.096s-1.625-0.595-3.096-1.896c-1.145-1.013-1.918-2.263-2.142-2.646s-0.023-0.589 0.169-0.779c0.174-0.171 0.385-0.446 0.578-0.669s0.257-0.382 0.385-0.637c0.129-0.255 0.065-0.478-0.032-0.669s-0.867-2.071-1.188-2.836c-0.321-0.764-0.641-0.637-0.866-0.637s-0.481-0.032-0.738-0.032-0.674 0.096-1.027 0.478c-0.353 0.383-1.347 1.307-1.347 3.187s1.379 3.697 1.572 3.951c0.192 0.255 2.663 4.238 6.578 5.768s3.915 1.019 4.621 0.955c0.705-0.064 2.278-0.924 2.6-1.816 0.32-0.893 0.32-1.658 0.224-1.817z"></path>
</symbol>
<symbol id="icon-youtube" viewBox="0 0 32 32">
<title>youtube</title>
<path d="M25.223 23.407h-1.756l0.008-1.020c0-0.453 0.372-0.824 0.827-0.824h0.112c0.456 0 0.829 0.371 0.829 0.824l-0.020 1.020zM18.636 21.221c-0.445 0-0.81 0.299-0.81 0.666v4.961c0 0.366 0.364 0.665 0.81 0.665 0.447 0 0.812-0.299 0.812-0.665v-4.961c0-0.367-0.365-0.666-0.812-0.666zM29.333 18.446v9.438c0 2.264-1.963 4.116-4.363 4.116h-17.941c-2.4 0-4.363-1.852-4.363-4.116v-9.438c0-2.264 1.963-4.117 4.363-4.117h17.941c2.4 0 4.363 1.853 4.363 4.117zM8.226 28.908l-0.001-9.942 2.224 0.001v-1.473l-5.929-0.009v1.448l1.851 0.005v9.969h1.855zM14.893 20.448h-1.854v5.309c0 0.768 0.047 1.152-0.003 1.287-0.151 0.412-0.828 0.849-1.093 0.044-0.045-0.141-0.005-0.566-0.006-1.295l-0.007-5.345h-1.844l0.006 5.262c0.001 0.806-0.018 1.408 0.006 1.681 0.045 0.483 0.029 1.045 0.477 1.366 0.834 0.601 2.433-0.090 2.833-0.949l-0.004 1.096 1.489 0.002-0-8.459zM20.825 26.527l-0.004-4.418c-0.001-1.684-1.261-2.692-2.971-1.33l0.007-3.285-1.852 0.003-0.009 11.339 1.523-0.022 0.139-0.706c1.946 1.785 3.169 0.562 3.167-1.58zM26.628 25.941l-1.39 0.007c-0.001 0.055-0.003 0.119-0.004 0.188v0.776c0 0.415-0.343 0.753-0.76 0.753h-0.272c-0.417 0-0.761-0.338-0.761-0.753v-2.041h3.184v-1.198c0-0.876-0.022-1.751-0.095-2.252-0.228-1.584-2.451-1.835-3.574-1.024-0.352 0.253-0.622 0.592-0.778 1.047-0.158 0.455-0.236 1.078-0.236 1.868v2.635c0.001 4.38 5.321 3.761 4.686-0.006zM19.496 11.638c0.096 0.233 0.244 0.421 0.446 0.563 0.199 0.14 0.454 0.21 0.759 0.21 0.267 0 0.504-0.072 0.71-0.221s0.379-0.37 0.52-0.665l-0.035 0.727h2.067v-8.79h-1.627v6.841c0 0.37-0.305 0.674-0.678 0.674-0.371 0-0.677-0.303-0.677-0.674v-6.841h-1.698v5.929c0 0.755 0.014 1.259 0.036 1.514 0.023 0.254 0.081 0.497 0.177 0.732zM13.233 6.674c0-0.844 0.070-1.503 0.21-1.978 0.141-0.473 0.394-0.854 0.76-1.141 0.365-0.288 0.833-0.433 1.401-0.433 0.478 0 0.888 0.094 1.23 0.278 0.344 0.185 0.609 0.425 0.793 0.721 0.187 0.297 0.315 0.603 0.383 0.915 0.069 0.317 0.103 0.795 0.103 1.439v2.223c0 0.815-0.033 1.415-0.096 1.796-0.063 0.382-0.198 0.736-0.407 1.068-0.206 0.329-0.473 0.574-0.795 0.731-0.326 0.158-0.7 0.236-1.121 0.236-0.471 0-0.868-0.065-1.195-0.201-0.328-0.135-0.582-0.339-0.762-0.609-0.182-0.271-0.311-0.601-0.388-0.986s-0.115-0.963-0.115-1.733l0.001-2.327zM14.852 10.165c0 0.498 0.37 0.904 0.822 0.904s0.821-0.406 0.821-0.904v-4.679c0-0.497-0.369-0.903-0.821-0.903s-0.822 0.406-0.822 0.903v4.679zM9.131 12.528h1.95l0.002-6.741 2.304-5.775h-2.133l-1.225 4.289-1.242-4.301h-2.111l2.451 5.79 0.003 6.738z"></path>
</symbol>
</defs>
</svg>
