<svg xmlns="http://www.w3.org/2000/svg" width="34.719" height="26.13" viewBox="0 0 34.719 26.13">
  <path id="Mail" class="cls-1" d="M248.764,4695.03H222.54a4.23,4.23,0,0,0-4.245,4.2v17.73a4.224,4.224,0,0,0,4.245,4.2h26.217a4.224,4.224,0,0,0,4.244-4.2v-17.72A4.221,4.221,0,0,0,248.764,4695.03Zm2.3,21.93a2.293,2.293,0,0,1-2.3,2.28H222.54a2.294,2.294,0,0,1-2.306-2.28v-17.72a2.294,2.294,0,0,1,2.306-2.28h26.217a2.293,2.293,0,0,1,2.305,2.28v17.72h0.007Zm-10.886-9.08,8.488-7.53a0.96,0.96,0,0,0,.072-1.36,0.978,0.978,0,0,0-1.372-.07l-11.7,10.39-2.284-2.02a0.02,0.02,0,0,1-.015-0.02,1.092,1.092,0,0,0-.158-0.13l-9.292-8.23a0.978,0.978,0,0,0-1.371.08,0.954,0.954,0,0,0,.079,1.36l8.588,7.59-8.553,7.92a0.959,0.959,0,0,0-.042,1.36,0.994,0.994,0,0,0,1.371.05l8.682-8.04,2.355,2.08a0.953,0.953,0,0,0,.647.25,0.989,0.989,0,0,0,.646-0.25l2.42-2.15,8.631,8.11a0.964,0.964,0,1,0,1.336-1.39Z" transform="translate(-218.281 -4695.03)"/>
</svg>
