<svg xmlns="http://www.w3.org/2000/svg" width="35.531" height="35.13" viewBox="0 0 35.531 35.13">
  <path id="Phone" class="cls-1" d="M246.107,4632.76a3.52,3.52,0,0,0-2.541-1.15,3.637,3.637,0,0,0-2.57,1.14l-2.376,2.34c-0.195-.11-0.391-0.2-0.579-0.3-0.27-.13-0.526-0.26-0.744-0.39a25.87,25.87,0,0,1-6.186-5.57,14.954,14.954,0,0,1-2.03-3.16c0.616-.56,1.187-1.13,1.744-1.69l0.631-.63a3.381,3.381,0,0,0,0-5.14l-2.052-2.02c-0.233-.23-0.474-0.47-0.7-0.71-0.451-.46-0.925-0.93-1.413-1.38a3.589,3.589,0,0,0-2.518-1.09,3.717,3.717,0,0,0-2.557,1.09l-0.015.02-2.555,2.54a5.405,5.405,0,0,0-1.631,3.45,12.846,12.846,0,0,0,.962,5.51,31.9,31.9,0,0,0,5.75,9.47,35.329,35.329,0,0,0,11.78,9.1,18.436,18.436,0,0,0,6.615,1.93c0.158,0.01.323,0.02,0.473,0.02a5.715,5.715,0,0,0,4.338-1.84c0.007-.02.022-0.02,0.03-0.04a16.207,16.207,0,0,1,1.315-1.34c0.324-.31.654-0.63,0.978-0.96a3.683,3.683,0,0,0,1.135-2.57,3.533,3.533,0,0,0-1.158-2.54Zm2.691,7.81c-0.007,0-.007.01,0,0-0.293.31-.594,0.6-0.917,0.91a19.77,19.77,0,0,0-1.45,1.48,3.653,3.653,0,0,1-2.827,1.18c-0.113,0-.233,0-0.346-0.01a16.536,16.536,0,0,1-5.863-1.73,33.409,33.409,0,0,1-11.1-8.58,30.035,30.035,0,0,1-5.412-8.9,10.474,10.474,0,0,1-.842-4.64,3.407,3.407,0,0,1,1.038-2.21l2.563-2.53a1.729,1.729,0,0,1,1.143-.53,1.647,1.647,0,0,1,1.1.52l0.023,0.03c0.458,0.42.894,0.86,1.353,1.32,0.233,0.24.473,0.48,0.714,0.72l2.052,2.03a1.405,1.405,0,0,1,0,2.3c-0.218.22-.428,0.43-0.646,0.64-0.632.64-1.234,1.23-1.887,1.81a0.087,0.087,0,0,0-.038.04,1.5,1.5,0,0,0-.391,1.68c0.008,0.02.015,0.05,0.023,0.07a16.269,16.269,0,0,0,2.428,3.91l0.007,0.01a27.359,27.359,0,0,0,6.676,5.99,9.056,9.056,0,0,0,.924.5c0.271,0.13.526,0.26,0.744,0.39l0.091,0.06a1.718,1.718,0,0,0,.744.18,1.637,1.637,0,0,0,1.142-.51l2.571-2.54a1.724,1.724,0,0,1,1.135-.56,1.515,1.515,0,0,1,1.083.55c0.007,0,.007,0,0.015.01l4.142,4.09A1.453,1.453,0,0,1,248.8,4640.57Zm-11.591-21.23a9.6,9.6,0,0,1,5.187,2.66,9.4,9.4,0,0,1,2.691,5.12,1,1,0,0,0,1,.83,1.031,1.031,0,0,0,.173-0.02,0.992,0.992,0,0,0,.834-1.15,11.387,11.387,0,0,0-3.255-6.2,11.631,11.631,0,0,0-6.277-3.21,1.016,1.016,0,0,0-1.173.81A0.992,0.992,0,0,0,237.207,4619.34Zm16.327,7.15a18.765,18.765,0,0,0-5.359-10.21,19.193,19.193,0,0,0-10.337-5.29,1,1,0,1,0-.33,1.98,17.108,17.108,0,0,1,9.238,4.72,16.773,16.773,0,0,1,4.789,9.12,1.048,1.048,0,0,0,1.172.82A0.982,0.982,0,0,0,253.534,4626.49Z" transform="translate(-218 -4611)"/>
</svg>
